<svg width="234" height="230" viewBox="0 0 234 230" fill="none" xmlns="http://www.w3.org/2000/svg">
<path d="M0 122.396V64.7283C0 46.9783 7.30365 30.8061 19.029 19.0517L19.0684 19.0122C30.7937 7.29723 46.9802 0 64.7853 0C82.5509 0 98.7374 7.29723 110.502 19.0122L110.542 19.0517C112.871 21.3789 115.042 23.9033 116.977 26.5461C118.951 23.8639 121.083 21.3789 123.412 19.0517L123.451 19.0122C135.177 7.29723 151.363 0 169.129 0C186.894 0 203.081 7.29723 214.846 19.0122L214.885 19.0517C226.61 30.7667 233.914 46.9389 233.914 64.7283V122.396H208.766V64.7283C208.766 53.8417 204.305 43.9411 197.159 36.7622C189.974 29.5833 180.064 25.1261 169.168 25.1261C158.232 25.1261 148.323 29.5833 141.177 36.7228L141.138 36.7622C133.992 43.9017 129.531 53.8022 129.531 64.7283V147.522H233.914V172.609H129.531V229.882H104.422V172.609V147.522V64.7283C104.422 53.8417 99.9612 43.9411 92.8155 36.7622L92.776 36.7228C85.6303 29.5833 75.721 25.1261 64.7853 25.1261C53.8891 25.1261 43.9403 29.5833 36.7946 36.7622C29.6094 43.9411 25.1482 53.8417 25.1482 64.7283V122.396H0ZM0 147.483V172.569H79.2742V147.483H0Z" fill="#598392"/>
</svg>
