<svg width="512" height="512" viewBox="0 0 512 512" fill="none" xmlns="http://www.w3.org/2000/svg">
<rect width="512" height="512" fill="white"/>
<path d="M287.717 200.161H320.014C327.083 200.161 334.083 201.554 340.614 204.259C347.145 206.964 353.079 210.929 358.077 215.928C363.076 220.926 367.041 226.86 369.746 233.391C372.451 239.922 373.843 246.922 373.843 253.991C373.843 261.06 372.451 268.059 369.746 274.59C367.041 281.121 363.076 287.055 358.077 292.054C353.079 297.052 347.145 301.017 340.614 303.722C334.083 306.428 327.083 307.82 320.014 307.82H287.717M223.122 307.82H190.824C183.755 307.82 176.755 306.428 170.224 303.722C163.694 301.017 157.76 297.052 152.761 292.054C142.666 281.959 136.995 268.267 136.995 253.991C136.995 239.714 142.666 226.023 152.761 215.928C162.856 205.833 176.548 200.161 190.824 200.161H223.122" stroke="black" stroke-width="13" stroke-linecap="round" stroke-linejoin="round"/>
<path d="M210.818 254.557H296.944" stroke="black" stroke-width="13" stroke-linecap="round" stroke-linejoin="round"/>
<g style="mix-blend-mode:difference">
<path d="M69 198C69 127.308 126.308 70 197 70H255.5V443H197C126.308 443 69 385.692 69 315V198Z" fill="white"/>
</g>
</svg>
